# xmcd CD database file
#
# Track frame offsets:
#	150
#	15593
#	34018
#	52856
#	71665
#	87827
#	104230
#	125463
#	143574
#	159596
#	175280
#	189496
#	204218
#	217819
#	232400
#	250360
#	270600
#	289939
#	303656
#	321906
#
# Disc length: 4541 seconds
#
# Revision: 1
# Processed by: cddbd v1.5.2PL0 Copyright (c) Steve Scherf et al.
# Submitted via: CDex 1.51
#
DISCID=2711bb14
DTITLE=Various Artist - ZM-PB-2014-CD-4
DYEAR=1900
DGENRE=Blues
TTITLE0=Lilly Wood and The Prick Ft Robin Schulz - Prayer In C
TTITLE1=Lilly Allen - Air Balloon
TTITLE2=Little Mix - Little Me
TTITLE3=Little Mix - Salute
TTITLE4=Lorde - Team
TTITLE5=Lorde - Tennis Court
TTITLE6=Magic - Let Your Hair Down
TTITLE7=Magic - Rude
TTITLE8=Maroon 5 - Maps
TTITLE9=Meghan Trainor - All About The Bass
TTITLE10=MKTO - Classic
TTITLE11=Molly Smitten-Downs - Children Of The Universe
TTITLE12=Mr Probes - Waves
TTITLE13=Naughty Boy Ft Wiz Khalifa and Ella Eyre - Think About It
TTITLE14=Neon Jungle - Braveheart
TTITLE15=Nicki Minaj - Anaconda
TTITLE16=Nico and Vinz - Am I Wrong
TTITLE17=One Direction - Fireproof
TTITLE18=One Direction - Steal My Girl
TTITLE19=One Direction - You And I
EXTD=
EXTT0=
EXTT1=
EXTT2=
EXTT3=
EXTT4=
EXTT5=
EXTT6=
EXTT7=
EXTT8=
EXTT9=
EXTT10=
EXTT11=
EXTT12=
EXTT13=
EXTT14=
EXTT15=
EXTT16=
EXTT17=
EXTT18=
EXTT19=
PLAYORDER=
